<?xml version="1.0" standalone="no"?>
<!DOCTYPE svg PUBLIC "-//W3C//DTD SVG 20010904//EN"
 "http://www.w3.org/TR/2001/REC-SVG-20010904/DTD/svg10.dtd">
<svg version="1.0" xmlns="http://www.w3.org/2000/svg"
 width="600.000000pt" height="140.000000pt" viewBox="0 0 600.000000 140.000000"
 preserveAspectRatio="xMidYMid meet">

<g transform="translate(0.000000,140.000000) scale(0.100000,-0.100000)"
fill="#000000" stroke="none">
<path d="M2222 1303 c-38 -54 -259 -367 -490 -695 l-421 -598 690 0 689 0 0
695 0 695 -200 0 -199 0 -69 -97z"/>
<path d="M4411 1390 c-241 -36 -387 -226 -359 -469 33 -282 345 -441 615 -311
68 33 141 84 150 106 4 11 -19 40 -68 90 l-73 73 -34 -26 c-55 -41 -129 -66
-180 -58 -50 7 -108 53 -128 102 -18 42 -18 134 0 176 32 77 125 122 203 97
41 -13 99 -52 123 -82 15 -18 19 -15 81 59 85 101 84 101 64 124 -76 83 -260
139 -394 119z"/>
<path d="M2960 1285 l0 -105 115 0 115 0 0 -305 0 -305 130 0 130 0 0 305 0
305 120 0 120 0 0 105 0 105 -365 0 -365 0 0 -105z"/>
<path d="M5280 981 l0 -411 130 0 129 0 3 108 3 107 115 6 c129 6 190 26 248
82 56 53 75 101 80 198 6 112 -12 170 -71 227 -78 77 -116 85 -394 90 l-243 4
0 -411z m441 180 c29 -36 26 -115 -6 -146 -21 -22 -33 -25 -100 -25 l-75 0 0
101 0 101 81 -4 c70 -3 83 -6 100 -27z"/>
</g>
</svg>
